<svg xmlns="http://www.w3.org/2000/svg" width="1333.333" height="1066.667"><path d="M380.099 667.317c37.808-14.753 78.593-22.804 118.636-25.474a436.096 436.096 0 0172.92 1.234c11.153 1.128 22.233 1.718 33.381 3.226 50.944 6.886 100.825 20.114 149.559 36.117 249.957 82.084 296.704 74.819 358.62 58.108-69.067 8.475-157.684-34.232-218.387-62.03-63.357-29.011-127.023-49.642-193.564-70.549-118.239-37.148-265.639-56.064-373.952 19.159a215.649 215.649 0 00-15.63 11.937c-52.01 43.65-79.171 109.439-91.563 174.355 2.149-11.259 13.277-24.921 19.582-34.357a288.612 288.612 0 0125.326-32.546c18.422-20.496 39.749-38.434 63.129-53.172 16.356-10.308 33.808-18.929 51.943-26.008" fill="#3c3c3d"/><path d="M679.268 442.8l54.677-99.75-24.952 110.769a200.9 200.9 0 00-29.725-11.019m-81.327-6.01l25.919-183.523 25.917 183.522a205.188 205.188 0 00-25.917-1.641c-8.783 0-17.433.561-25.919 1.641M746.54 476.46l149.53-111.655L783.2 512.723a201.103 201.103 0 00-36.659-36.263M493.67 351.29l61.525 95.762a201.206 201.206 0 00-28.879 13.04l-32.647-108.803M464.52 512.723L351.648 364.805l149.53 111.655a201.145 201.145 0 00-36.658 36.263m445.215-7.428l-96.808 60.861a196.774 196.774 0 00-13.182-28.567l109.99-32.294m-13.665 147.22c-11.669-3.162-57.22-22.78-71.37-28.098a199.218 199.218 0 00-1.397-15.974l185.521 25.638-112.753 18.434M441.632 549.864a196.689 196.689 0 00-3.575 8.053c-11.217 1.972-22.302 4.482-33.204 7.6l-75.197-40.334 111.976 24.681m182.228-93.516c93.177 0 169.784 70.165 178.781 159.997-31.526-11.13-63.438-21.316-96.044-31.558-75.376-23.682-162.6-39.946-243.996-29.146 29.294-58.818 90.492-99.293 161.259-99.293" fill="#f7a42d"/></svg>